<?xml version="1.0" encoding="utf-8"?>
<svg viewBox="-147.679 266.393 918.664 170.268" xmlns="http://www.w3.org/2000/svg" xmlns:bx="https://boxy-svg.com">
  <defs>
    <linearGradient gradientUnits="userSpaceOnUse" x1="250.189" y1="47.874" x2="250.189" y2="346.547" id="gradient-0" gradientTransform="matrix(0.287251, 0, 0, 0.287251, 319.508789, 297.956303)">
      <stop offset="0" style="stop-color: rgba(85, 154, 218, 1)"/>
      <stop offset="1" style="stop-color: rgba(36, 103, 165, 1)"/>
    </linearGradient>
    <clipPath id="clip0">
      <rect x="394" y="297" width="3611" height="1334"/>
    </clipPath>
    <linearGradient gradientUnits="userSpaceOnUse" x1="2423.323" y1="814.677" x2="2423.323" y2="987.959" id="gradient-2">
      <stop offset="0" style="stop-color: rgba(85, 153, 217, 1)"/>
      <stop offset="1" style="stop-color: rgba(36, 102, 163, 1)"/>
    </linearGradient>
  </defs>
  <path opacity="1.000000" stroke="none" d="M 422.805 397.428 C 419.322 397.439 415.963 397.421 412.344 397.403 C 408.53 397.431 404.978 397.462 401.301 397.448 C 400.397 397.435 399.615 397.465 398.707 397.451 C 394.836 397.444 391.092 397.481 387.218 397.477 C 383.632 397.472 380.176 397.508 376.59 397.502 C 369.845 397.459 363.228 397.458 356.492 397.425 C 355.879 397.395 355.384 397.396 354.889 397.396 C 351.283 396.84 347.657 396.37 344.337 395.044 C 336.44 391.888 330.321 386.922 326.675 379.129 C 326.615 379.002 326.513 378.892 326.371 378.705 C 323.624 372.334 322.84 365.844 324.338 358.999 C 325.432 356.058 326.223 353.061 327.709 350.461 C 330.861 344.957 335.371 340.797 341.323 338.332 C 344.979 336.82 348.786 336.041 352.726 335.928 C 353.505 335.906 353.86 335.69 354.184 334.94 C 356.288 330.056 359.264 325.869 363.352 322.327 C 367.921 318.368 372.969 315.42 378.663 313.602 C 381.141 312.81 383.787 312.547 386.459 311.981 C 387.128 311.882 387.708 311.786 388.507 311.746 C 389.544 311.691 393.654 311.724 394.432 311.963 C 398.18 312.232 398.449 312.491 402.271 313.316 C 405.309 314.561 408.468 315.438 411.186 317.048 C 414.149 318.805 416.755 321.163 419.531 323.239 C 419.884 323.504 420.337 323.637 420.85 323.802 C 424.905 323.831 428.645 324.46 432.533 325.308 C 433.184 325.449 433.877 325.72 434.581 325.959 C 437.827 327.057 440.739 328.089 444.108 330.828 C 444.317 330.998 444.313 331.019 444.422 331.068 C 446.019 332.316 447.631 333.734 449.181 335.37 C 449.861 336.11 450.319 336.778 450.872 337.386 C 451.117 337.737 451.325 338.106 451.649 338.5 C 453.38 341.618 455.237 344.579 456.778 347.708 C 457.399 348.969 457.615 350.431 458.073 351.892 C 458.223 352.572 458.314 353.162 458.472 353.956 C 458.642 354.66 458.747 355.158 458.853 355.66 C 459.007 357.202 459.11 358.743 459.102 360.52 C 459.101 360.971 459.142 361.188 459.163 361.406 C 458.953 364.513 458.518 367.504 457.817 370.472 C 456.726 374.105 455.32 377.463 453.255 380.543 C 450.326 384.915 446.706 388.565 442.314 391.462 C 437.53 394.616 432.254 396.383 426.388 397.198 C 425.673 397.306 425.182 397.368 424.69 397.43 C 424.103 397.419 423.514 397.408 422.805 397.428 M 377.255 389.896 C 377.842 389.876 378.43 389.857 379.282 389.894 C 386.568 389.874 393.852 389.853 401.402 389.888 C 408.769 389.894 416.139 389.954 423.506 389.888 C 429.044 389.84 434.12 388.117 438.693 385.045 C 445.439 380.511 449.594 374.198 451.131 366.209 C 453.094 356.025 450.332 347.254 443.054 339.66 C 442.208 338.894 441.411 338.061 440.508 337.371 C 433.957 332.373 426.515 330.709 418.41 331.475 C 417.81 331.532 417.017 331.23 416.562 330.821 C 415.016 329.439 413.585 327.931 412.006 326.32 C 407.759 322.897 402.941 320.653 397.591 319.685 C 389.159 318.162 381.17 319.358 373.733 323.811 C 367.221 327.71 362.633 333.162 360.004 340.277 C 359.876 340.623 359.297 341.883 359.096 342.031 C 357.453 343.25 355.677 343.263 353.357 343.36 C 346.262 343.658 340.294 346.029 335.865 351.616 C 331.428 357.213 329.351 363.668 330.874 370.912 C 331.451 372.624 332.3 374.423 333.003 376.083 C 334.48 379.578 337.045 382.236 340.316 384.541 C 341.878 385.812 343.808 387.081 345.963 387.952 C 349.212 389.268 352.549 389.807 355.954 389.864 C 362.874 389.98 369.798 389.859 376.865 389.886 C 376.912 389.871 376.96 389.853 377.255 389.896 Z" style="fill: url(#gradient-0); stroke-linecap: round; stroke-linejoin: round;" bx:origin="0.784158 0.825444"/>
  <path opacity="1.000000" d="M 407.696 365.52 C 406.627 365.384 405.56 365.251 404.37 365.123 C 399.163 363.336 396.162 359.843 395.445 354.213 C 403.884 354.213 412.261 354.213 420.793 354.303 C 421 354.475 421.066 354.54 421.147 354.591 C 419.908 359.149 417.59 362.825 412.87 364.655 C 411.559 364.96 410.326 365.211 408.856 365.461 C 408.312 365.481 408.004 365.5 407.696 365.52 M 409.847 356.001 C 407.652 354.925 405.849 355.396 404.835 357.393 C 404.627 357.805 404.541 358.439 404.705 358.852 C 405.2 360.111 407.408 361.118 409.098 360.985 C 410.391 360.885 411.399 359.861 411.981 358.037 C 412.623 356.229 410.799 354.792 409.847 356.001 Z" style="fill: rgb(247, 247, 248);" stroke="none" bx:origin="1.340552 2.504298"/>
  <path opacity="1.000000" d="M 367.294 365.048 C 364.339 363.728 361.884 361.89 360.284 359.101 C 359.743 358.159 359.406 357.101 358.919 355.916 C 358.816 355.614 358.768 355.494 358.719 355.372 C 358.75 355.111 358.78 354.85 358.81 354.491 C 365.975 354.381 373.135 354.372 380.424 354.319 C 381.88 354.279 383.206 354.279 384.536 354.279 C 384.365 359.668 378.876 365.933 371.125 365.773 C 369.922 365.599 368.94 365.447 367.959 365.297 C 367.765 365.211 367.571 365.127 367.294 365.048 M 375.446 357.433 C 375.023 355.56 374.228 355.153 371.698 355.613 C 371.104 355.739 370.496 355.813 369.924 356.003 C 368.713 356.406 368.197 357.475 368.237 358.563 C 368.264 359.277 368.819 360.17 369.413 360.623 C 370.705 361.61 372.228 361.642 373.721 360.959 C 375.148 360.307 375.455 359.066 375.446 357.433 Z" style="fill: rgb(247, 247, 248);" stroke="none" bx:origin="2.757267 2.457342"/>
  <path opacity="1.000000" stroke="none" d="M 411.853 358.188 C 411.399 359.861 410.391 360.885 409.098 360.985 C 407.408 361.118 405.2 360.111 404.705 358.852 C 404.541 358.439 404.621 357.801 404.835 357.393 C 405.857 355.452 407.852 354.966 410.072 355.668 C 409.83 356.809 410.525 357.834 411.853 358.188 Z" style="fill: rgb(59, 126, 188);" bx:origin="3.494471 4.821619"/>
  <path opacity="1.000000" stroke="none" d="M 375.403 357.652 C 375.455 359.066 375.148 360.307 373.721 360.959 C 372.228 361.642 370.705 361.61 369.413 360.623 C 368.819 360.17 368.264 359.277 368.237 358.563 C 368.197 357.475 368.713 356.406 369.924 356.003 C 370.496 355.813 372.699 355.558 373.48 355.511 C 374.291 355.856 372.693 356.008 373.415 357.134 C 373.675 357.283 375.213 357.819 375.403 357.652 Z" style="fill: rgb(59, 126, 188);" bx:origin="8.597379 4.56791"/>
  <path style="stroke-width: 3px; fill: rgb(59, 126, 189); stroke: rgb(36, 104, 166);" d="M 395.494 354.028 L 421.124 354.155" bx:origin="1.342403 221.916106"/>
  <path style="stroke-width: 3px; fill: rgb(59, 126, 189); stroke: rgb(36, 104, 166);" d="M 358.747 354.487 L 384.753 354.168" bx:d="M 358.747 354.487 R 384.753 354.168 1@9d21d90f" bx:origin="2.736066 88.608457"/>
  <g clip-path="url(#clip0)" transform="matrix(0.6256, 0, 0, 0.6256, -1434.15918, -199.774551)" style="">
    <text style="fill: url(#gradient-2); font-family: &quot;Product Sans&quot;, &quot;Product Sans_MSFontService&quot;, sans-serif; font-size: 212.744px; font-weight: 700; letter-spacing: 0.1px; line-height: 274.119px; white-space: pre;" x="2088.13" y="951.652">Cloudfl     w</text>
  </g>
</svg>