<?xml version="1.0" encoding="utf-8"?>
<svg viewBox="0 -9.187 1043.577 213.604" xmlns="http://www.w3.org/2000/svg" xmlns:bx="https://boxy-svg.com">
  <defs>
    <linearGradient gradientUnits="userSpaceOnUse" x1="250.189" y1="47.874" x2="250.189" y2="346.547" id="gradient-0" gradientTransform="matrix(0.591728, 0, 0, 0.591728, 38.974226, -22.112823)">
      <stop offset="0" style="stop-color: rgba(85, 154, 218, 1)"/>
      <stop offset="1" style="stop-color: rgba(36, 103, 165, 1)"/>
    </linearGradient>
    <linearGradient gradientUnits="userSpaceOnUse" x1="273.879" y1="263.605" x2="273.879" y2="466.641" id="gradient-1">
      <stop offset="0" style="stop-color: rgba(83, 152, 216, 1)"/>
      <stop offset="1" style="stop-color: rgba(36, 100, 160, 1)"/>
    </linearGradient>
    <style bx:fonts="Alata">@import url(https://fonts.googleapis.com/css2?family=Alata%3Aital%2Cwght%400%2C400&amp;display=swap);</style>
  </defs>
  <path opacity="1.000000" stroke="none" d="M 251.761 182.794 C 244.588 182.818 237.669 182.781 230.211 182.743 C 222.356 182.803 215.037 182.864 207.464 182.836 C 205.602 182.811 203.993 182.873 202.122 182.842 C 194.147 182.828 186.433 182.904 178.454 182.897 C 171.067 182.886 163.947 182.959 156.563 182.947 C 142.666 182.86 129.035 182.859 115.159 182.79 C 113.895 182.726 112.876 182.729 111.857 182.73 C 104.428 181.584 96.961 180.616 90.122 177.884 C 73.853 171.385 61.249 161.153 53.735 145.101 C 53.612 144.839 53.405 144.614 53.11 144.227 C 47.453 131.103 45.838 117.732 48.923 103.632 C 51.178 97.577 52.804 91.4 55.868 86.047 C 62.359 74.708 71.65 66.136 83.913 61.062 C 91.443 57.945 99.285 56.341 107.401 56.108 C 109.008 56.062 109.736 55.617 110.403 54.071 C 114.74 44.009 120.869 35.387 129.29 28.09 C 138.702 19.937 149.1 13.862 160.831 10.117 C 165.936 8.487 171.387 7.94 176.889 6.778 C 178.268 6.573 179.464 6.375 181.109 6.291 C 183.244 6.183 191.711 6.25 193.313 6.74 C 201.036 7.294 201.592 7.827 209.464 9.527 C 215.719 12.092 222.228 13.898 227.827 17.215 C 233.931 20.836 239.297 25.694 245.018 29.967 C 245.747 30.512 246.676 30.788 247.734 31.127 C 256.088 31.187 263.79 32.485 271.8 34.231 C 273.142 34.522 274.568 35.078 276.021 35.57 C 282.706 37.833 288.704 39.959 295.646 45.604 C 296.076 45.952 296.068 45.997 296.291 46.095 C 299.581 48.667 302.9 51.589 306.094 54.959 C 307.494 56.482 308.439 57.857 309.58 59.112 C 310.084 59.834 310.511 60.592 311.179 61.404 C 314.746 67.828 318.572 73.929 321.744 80.373 C 323.024 82.973 323.47 85.983 324.413 88.993 C 324.722 90.392 324.909 91.609 325.233 93.244 C 325.584 94.693 325.802 95.723 326.018 96.754 C 326.336 99.93 326.548 103.104 326.533 106.765 C 326.53 107.696 326.615 108.142 326.657 108.589 C 326.225 114.991 325.329 121.153 323.884 127.266 C 321.638 134.749 318.742 141.666 314.488 148.01 C 308.452 157.018 300.998 164.537 291.949 170.506 C 282.096 177.005 271.226 180.643 259.143 182.321 C 257.672 182.545 256.658 182.672 255.645 182.799 C 254.435 182.776 253.223 182.754 251.761 182.794 M 157.93 167.28 C 159.14 167.238 160.352 167.198 162.107 167.277 C 177.113 167.235 192.12 167.192 207.671 167.266 C 222.85 167.278 238.028 167.398 253.205 167.264 C 264.614 167.164 275.071 163.615 284.489 157.286 C 298.387 147.948 306.947 134.941 310.115 118.484 C 314.155 97.509 308.467 79.439 293.473 63.795 C 291.73 62.216 290.091 60.503 288.229 59.082 C 274.734 48.782 259.405 45.358 242.708 46.935 C 241.472 47.051 239.842 46.432 238.901 45.588 C 235.719 42.738 232.768 39.634 229.516 36.316 C 220.766 29.265 210.843 24.642 199.82 22.649 C 182.451 19.509 165.996 21.973 150.675 31.147 C 137.262 39.177 127.811 50.41 122.395 65.064 C 122.13 65.779 120.937 68.376 120.525 68.68 C 117.141 71.188 113.48 71.216 108.701 71.417 C 94.085 72.032 81.791 76.916 72.67 88.423 C 63.529 99.954 59.251 113.252 62.385 128.171 C 63.573 131.699 65.325 135.405 66.772 138.825 C 69.816 146.024 75.099 151.502 81.836 156.25 C 85.054 158.866 89.032 161.479 93.469 163.275 C 100.164 165.986 107.037 167.094 114.05 167.212 C 128.304 167.454 142.569 167.204 157.125 167.259 C 157.224 167.225 157.322 167.192 157.93 167.28 Z" style="fill: url(#gradient-0); stroke-linecap: round; stroke-linejoin: round;" bx:origin="0.784158 0.825444"/>
  <path opacity="1.000000" d="M 220.638 117.065 C 218.437 116.788 216.236 116.511 213.786 116.247 C 203.06 112.568 196.878 105.369 195.399 93.774 C 212.784 93.774 230.043 93.774 247.618 93.961 C 248.041 94.314 248.178 94.447 248.346 94.55 C 245.793 103.942 241.019 111.515 231.297 115.282 C 228.596 115.912 226.055 116.429 223.027 116.944 C 221.907 116.985 221.273 117.024 220.638 117.065 M 225.069 97.458 C 220.547 95.241 216.833 96.211 214.745 100.323 C 214.315 101.173 214.139 102.48 214.475 103.328 C 215.499 105.924 220.044 107.997 223.525 107.726 C 226.19 107.518 228.266 105.409 229.466 101.652 C 230.787 97.928 227.027 94.968 225.069 97.458 Z" style="fill: rgb(247, 247, 248);" stroke="none" bx:origin="1.340552 2.504298"/>
  <path opacity="1.000000" d="M 137.411 116.095 C 131.324 113.373 126.266 109.588 122.97 103.843 C 121.857 101.903 121.162 99.723 120.159 97.281 C 119.946 96.661 119.848 96.412 119.749 96.161 C 119.81 95.624 119.87 95.087 119.935 94.347 C 134.692 94.12 149.441 94.1 164.457 93.993 C 167.457 93.908 170.188 93.908 172.929 93.908 C 172.576 105.011 161.27 117.917 145.305 117.585 C 142.824 117.229 140.803 116.917 138.781 116.607 C 138.38 116.431 137.979 116.256 137.411 116.095 M 154.203 100.404 C 153.331 96.549 151.694 95.709 146.482 96.658 C 145.26 96.918 144.006 97.07 142.829 97.462 C 140.334 98.291 139.273 100.495 139.354 102.735 C 139.409 104.206 140.553 106.047 141.776 106.979 C 144.437 109.014 147.576 109.078 150.65 107.671 C 153.588 106.327 154.221 103.771 154.203 100.404 Z" style="fill: rgb(247, 247, 248);" stroke="none" bx:origin="2.757267 2.457342"/>
  <path opacity="1.000000" stroke="none" d="M 229.201 101.963 C 228.266 105.409 226.19 107.518 223.525 107.726 C 220.044 107.997 215.499 105.924 214.475 103.328 C 214.139 102.48 214.303 101.167 214.745 100.323 C 216.849 96.325 220.957 95.326 225.53 96.772 C 225.034 99.12 226.466 101.235 229.201 101.963 Z" style="fill: rgb(59, 126, 188);" bx:origin="3.494471 4.821619"/>
  <path opacity="1.000000" stroke="none" d="M 154.114 100.858 C 154.221 103.771 153.588 106.327 150.65 107.671 C 147.576 109.078 144.437 109.014 141.776 106.979 C 140.553 106.047 139.409 104.206 139.354 102.735 C 139.273 100.495 140.334 98.291 142.829 97.462 C 144.006 97.07 148.545 96.543 150.155 96.447 C 151.824 97.158 148.535 97.469 150.021 99.792 C 150.555 100.099 153.725 101.2 154.114 100.858 Z" style="fill: rgb(59, 126, 188);" bx:origin="8.597379 4.56791"/>
  <path style="stroke-width: 3px; fill: rgb(59, 126, 189); stroke: rgb(36, 104, 166);" d="M 195.5 93.391 L 248.299 93.655" bx:origin="1.342403 221.916106"/>
  <path style="stroke-width: 3px; fill: rgb(59, 126, 189); stroke: rgb(36, 104, 166);" d="M 119.803 94.338 L 173.374 93.679" bx:d="M 119.803 94.338 R 173.374 93.679 1@99dc9fa3" bx:origin="2.736066 88.608457"/>
  <text style="fill: url(#gradient-1); font-family: Alata; font-size: 147px; font-weight: 700; letter-spacing: -3.5px; paint-order: fill; stroke-width: 12.8611px; white-space: pre;" transform="matrix(0.640283, 0, 0, 0.610704, 375.818146, -124.573059)" x="-38.729" y="425.456" bx:origin="0.697005 -0.154188">Cloudflow</text>
</svg>