<?xml version="1.0" encoding="utf-8"?>
<svg viewBox="0 0 500 500" xmlns="http://www.w3.org/2000/svg" xmlns:bx="https://boxy-svg.com">
  <defs>
    <linearGradient gradientUnits="userSpaceOnUse" x1="250.189" y1="47.874" x2="250.189" y2="346.547" id="gradient-0" gradientTransform="matrix(0.647936, 0, 0, 0.647936, 87.728058, 68.253983)">
      <stop offset="0" style="stop-color: rgba(85, 154, 218, 1)"/>
      <stop offset="1" style="stop-color: rgba(36, 103, 165, 1)"/>
    </linearGradient>
    <linearGradient gradientUnits="userSpaceOnUse" x1="273.879" y1="263.605" x2="273.879" y2="466.641" id="gradient-1">
      <stop offset="0" style="stop-color: rgba(83, 152, 216, 1)"/>
      <stop offset="1" style="stop-color: rgba(36, 100, 160, 1)"/>
    </linearGradient>
    <style bx:fonts="Alata">@import url(https://fonts.googleapis.com/css2?family=Alata%3Aital%2Cwght%400%2C400&amp;display=swap);</style>
  </defs>
  <path opacity="1.000000" stroke="none" d="M 320.727 292.625 C 312.872 292.652 305.296 292.611 297.13 292.569 C 288.529 292.635 280.515 292.702 272.223 292.671 C 270.183 292.643 268.422 292.711 266.373 292.678 C 257.64 292.662 249.194 292.745 240.457 292.737 C 232.369 292.725 224.572 292.806 216.486 292.793 C 201.269 292.697 186.343 292.696 171.149 292.62 C 169.765 292.55 168.649 292.553 167.534 292.556 C 159.399 291.3 151.222 290.239 143.734 287.248 C 125.92 280.132 112.118 268.928 103.891 251.351 C 103.756 251.063 103.529 250.818 103.206 250.394 C 97.011 236.023 95.243 221.382 98.622 205.944 C 101.091 199.312 102.871 192.549 106.226 186.688 C 113.334 174.272 123.508 164.886 136.936 159.329 C 145.181 155.917 153.767 154.16 162.655 153.905 C 164.414 153.854 165.211 153.367 165.941 151.674 C 170.691 140.656 177.402 131.215 186.623 123.226 C 196.93 114.298 208.315 107.646 221.159 103.546 C 226.75 101.76 232.719 101.162 238.744 99.889 C 240.253 99.665 241.563 99.447 243.364 99.356 C 245.701 99.238 254.973 99.311 256.727 99.848 C 265.184 100.454 265.792 101.038 274.413 102.9 C 281.261 105.708 288.389 107.685 294.519 111.318 C 301.203 115.282 307.079 120.602 313.344 125.281 C 314.142 125.877 315.16 126.181 316.318 126.551 C 325.465 126.617 333.899 128.038 342.669 129.949 C 344.14 130.269 345.701 130.877 347.292 131.415 C 354.611 133.893 361.18 136.222 368.781 142.403 C 369.25 142.784 369.243 142.834 369.487 142.94 C 373.09 145.756 376.724 148.957 380.221 152.647 C 381.754 154.314 382.788 155.819 384.038 157.195 C 384.59 157.984 385.057 158.814 385.79 159.704 C 389.694 166.738 393.884 173.419 397.358 180.475 C 398.759 183.322 399.247 186.619 400.281 189.913 C 400.618 191.446 400.824 192.778 401.178 194.568 C 401.563 196.154 401.801 197.283 402.038 198.412 C 402.386 201.889 402.618 205.365 402.602 209.373 C 402.598 210.393 402.691 210.881 402.737 211.371 C 402.264 218.381 401.283 225.128 399.701 231.823 C 397.241 240.015 394.07 247.59 389.413 254.537 C 382.803 264.4 374.641 272.634 364.732 279.17 C 353.944 286.286 342.04 290.269 328.81 292.106 C 327.199 292.352 326.089 292.491 324.98 292.63 C 323.655 292.605 322.328 292.581 320.727 292.625 M 217.982 275.637 C 219.308 275.591 220.635 275.547 222.557 275.633 C 238.989 275.587 255.421 275.54 272.449 275.622 C 289.069 275.634 305.689 275.766 322.308 275.619 C 334.8 275.51 346.252 271.624 356.564 264.694 C 371.782 254.469 381.155 240.226 384.624 222.206 C 389.047 199.239 382.819 179.452 366.402 162.321 C 364.493 160.593 362.698 158.717 360.659 157.161 C 345.883 145.884 329.097 142.134 310.814 143.86 C 309.461 143.988 307.676 143.309 306.645 142.386 C 303.162 139.265 299.93 135.866 296.37 132.234 C 286.788 124.512 275.923 119.45 263.851 117.268 C 244.833 113.83 226.815 116.527 210.038 126.573 C 195.352 135.366 185.003 147.665 179.073 163.712 C 178.783 164.495 177.476 167.338 177.025 167.671 C 173.32 170.417 169.311 170.448 164.077 170.668 C 148.072 171.341 134.612 176.689 124.624 189.289 C 114.615 201.915 109.931 216.478 113.362 232.813 C 114.663 236.677 116.581 240.734 118.165 244.479 C 121.499 252.362 127.284 258.36 134.661 263.559 C 138.185 266.424 142.54 269.284 147.399 271.252 C 154.73 274.22 162.255 275.433 169.934 275.563 C 185.543 275.828 201.162 275.554 217.102 275.614 C 217.21 275.577 217.318 275.54 217.982 275.637 Z" style="fill: url(#gradient-0); stroke-linecap: round; stroke-linejoin: round;" bx:origin="0.500541 0.778825"/>
  <path opacity="1.000000" d="M 286.648 220.653 C 284.237 220.349 281.828 220.045 279.145 219.756 C 267.401 215.728 260.631 207.845 259.011 195.148 C 278.048 195.148 296.946 195.148 316.19 195.354 C 316.653 195.74 316.803 195.886 316.988 195.998 C 314.192 206.283 308.964 214.575 298.319 218.7 C 295.362 219.39 292.579 219.956 289.264 220.52 C 288.037 220.564 287.343 220.608 286.648 220.653 M 291.5 199.183 C 286.547 196.755 282.482 197.817 280.195 202.32 C 279.724 203.25 279.531 204.682 279.899 205.61 C 281.021 208.453 285.997 210.723 289.809 210.426 C 292.726 210.198 295 207.889 296.314 203.775 C 297.76 199.697 293.644 196.456 291.5 199.183 Z" style="fill: rgb(247, 247, 248);" stroke="none" bx:origin="-0.155425 2.150637"/>
  <path opacity="1.000000" d="M 195.516 219.59 C 188.849 216.609 183.312 212.465 179.702 206.174 C 178.483 204.05 177.722 201.663 176.625 198.989 C 176.391 198.31 176.283 198.037 176.176 197.763 C 176.242 197.175 176.307 196.587 176.379 195.776 C 192.537 195.528 208.688 195.505 225.13 195.388 C 228.414 195.296 231.405 195.296 234.406 195.296 C 234.02 207.453 221.639 221.585 204.159 221.221 C 201.443 220.832 199.229 220.49 197.015 220.15 C 196.576 219.958 196.137 219.767 195.516 219.59 M 213.902 202.408 C 212.947 198.187 211.155 197.268 205.447 198.307 C 204.11 198.592 202.736 198.757 201.448 199.186 C 198.715 200.095 197.554 202.508 197.643 204.961 C 197.703 206.572 198.955 208.587 200.294 209.609 C 203.208 211.836 206.645 211.907 210.012 210.366 C 213.228 208.894 213.921 206.095 213.902 202.408 Z" style="fill: rgb(247, 247, 248);" stroke="none" bx:origin="1.267798 2.109528"/>
  <path opacity="1.000000" stroke="none" d="M 296.023 204.115 C 295 207.889 292.726 210.198 289.809 210.426 C 285.997 210.723 281.021 208.453 279.899 205.61 C 279.531 204.682 279.711 203.244 280.195 202.32 C 282.499 197.941 286.998 196.847 292.005 198.432 C 291.461 201.003 293.029 203.318 296.023 204.115 Z" style="fill: rgb(59, 126, 188);" bx:origin="-1.820075 4.111914"/>
  <path opacity="1.000000" stroke="none" d="M 213.805 202.906 C 213.921 206.095 213.228 208.894 210.012 210.366 C 206.645 211.907 203.208 211.836 200.294 209.609 C 198.955 208.587 197.703 206.572 197.643 204.961 C 197.554 202.508 198.715 200.095 201.448 199.186 C 202.736 198.757 207.706 198.181 209.469 198.076 C 211.297 198.854 207.695 199.195 209.322 201.738 C 209.908 202.075 213.378 203.28 213.805 202.906 Z" style="fill: rgb(59, 126, 188);" bx:origin="3.236467 3.891874"/>
  <path style="stroke-width: 3px; fill: rgb(59, 126, 189); stroke: rgb(36, 104, 166);" d="M 259.122 194.729 L 316.936 195.018" bx:origin="-0.157784 191.248152"/>
  <path style="stroke-width: 3px; fill: rgb(59, 126, 189); stroke: rgb(36, 104, 166);" d="M 176.234 195.766 L 234.894 195.044" bx:d="M 176.234 195.766 R 234.894 195.044 1@7546c86b" bx:origin="1.257516 76.116322"/>
  <text style="fill: url(#gradient-1); font-family: Alata; font-size: 147px; font-weight: 700; letter-spacing: -7.5px; paint-order: fill; stroke-width: 12.8611px; white-space: pre;" transform="matrix(0.701104, 0, 0, 0.668714, 58.35997, 103.76506)" x="-38.729" y="425.456" bx:origin="0.499145 -0.223708">CloudFlow</text>
</svg>