<?xml version="1.0" encoding="utf-8"?>
<svg viewBox="-147.679 266.393 918.664 170.268" xmlns="http://www.w3.org/2000/svg" xmlns:bx="https://boxy-svg.com">
  <defs>
    <linearGradient gradientUnits="userSpaceOnUse" x1="250.189" y1="47.874" x2="250.189" y2="346.547" id="gradient-0" gradientTransform="matrix(0.269312, 0, 0, 0.269312, 317.76355, 304.173065)">
      <stop offset="0" style="stop-color: rgba(85, 154, 218, 1)"/>
      <stop offset="1" style="stop-color: rgba(36, 103, 165, 1)"/>
    </linearGradient>
    <clipPath id="clip0">
      <rect x="394" y="297" width="3611" height="1334"/>
    </clipPath>
    <linearGradient gradientUnits="userSpaceOnUse" x1="2423.323" y1="814.677" x2="2423.323" y2="987.959" id="gradient-2">
      <stop offset="0" style="stop-color: rgba(85, 153, 217, 1)"/>
      <stop offset="1" style="stop-color: rgba(36, 102, 163, 1)"/>
    </linearGradient>
  </defs>
  <path opacity="1.000000" stroke="none" d="M 414.61 397.432 C 411.343 397.444 408.195 397.425 404.802 397.41 C 401.226 397.435 397.896 397.465 394.448 397.452 C 393.601 397.44 392.867 397.467 392.016 397.455 C 388.386 397.447 384.876 397.482 381.244 397.478 C 377.881 397.474 374.641 397.507 371.28 397.502 C 364.957 397.463 358.752 397.461 352.438 397.43 C 351.863 397.401 351.399 397.402 350.934 397.402 C 347.554 396.881 344.154 396.441 341.042 395.198 C 333.638 392.239 327.9 387.584 324.483 380.277 C 324.427 380.157 324.331 380.054 324.198 379.88 C 321.623 373.906 320.886 367.821 322.292 361.404 C 323.318 358.646 324.058 355.836 325.452 353.399 C 328.406 348.238 332.635 344.339 338.215 342.027 C 341.642 340.611 345.213 339.879 348.907 339.773 C 349.636 339.753 349.97 339.55 350.274 338.848 C 352.246 334.268 355.036 330.342 358.868 327.022 C 363.152 323.31 367.885 320.546 373.225 318.842 C 375.546 318.098 378.028 317.853 380.532 317.323 C 381.159 317.229 381.704 317.139 382.453 317.102 C 383.425 317.05 387.28 317.081 388.008 317.305 C 391.523 317.558 391.773 317.801 395.357 318.573 C 398.206 319.742 401.167 320.563 403.717 322.073 C 406.493 323.72 408.936 325.93 411.54 327.876 C 411.87 328.125 412.295 328.25 412.776 328.404 C 416.577 328.432 420.084 329.021 423.73 329.816 C 424.34 329.949 424.989 330.203 425.649 330.428 C 428.693 331.456 431.423 332.424 434.582 334.992 C 434.778 335.152 434.774 335.171 434.875 335.216 C 436.373 336.387 437.883 337.717 439.338 339.25 C 439.975 339.945 440.405 340.57 440.923 341.141 C 441.153 341.469 441.348 341.815 441.651 342.184 C 443.273 345.107 445.014 347.884 446.461 350.818 C 447.042 352 447.245 353.371 447.674 354.739 C 447.815 355.378 447.9 355.931 448.049 356.675 C 448.209 357.336 448.306 357.803 448.405 358.273 C 448.551 359.719 448.646 361.164 448.639 362.829 C 448.639 363.252 448.677 363.456 448.696 363.661 C 448.498 366.572 448.092 369.377 447.434 372.159 C 446.412 375.566 445.093 378.715 443.156 381.603 C 440.411 385.702 437.017 389.122 432.899 391.839 C 428.414 394.797 423.468 396.452 417.968 397.218 C 417.298 397.318 416.838 397.376 416.376 397.434 C 415.826 397.424 415.273 397.414 414.61 397.432 M 371.903 390.371 C 372.454 390.352 373.005 390.334 373.803 390.369 C 380.636 390.35 387.464 390.332 394.542 390.363 C 401.45 390.369 408.36 390.426 415.266 390.363 C 420.458 390.318 425.217 388.703 429.506 385.823 C 435.829 381.572 439.725 375.653 441.166 368.163 C 443.008 358.615 440.416 350.392 433.593 343.272 C 432.8 342.554 432.054 341.773 431.206 341.127 C 425.065 336.44 418.087 334.881 410.489 335.599 C 409.925 335.652 409.182 335.368 408.756 334.986 C 407.306 333.69 405.964 332.276 404.483 330.764 C 400.502 327.556 395.986 325.452 390.97 324.544 C 383.063 323.117 375.574 324.238 368.601 328.413 C 362.496 332.069 358.195 337.18 355.73 343.851 C 355.61 344.176 355.067 345.357 354.88 345.496 C 353.339 346.638 351.673 346.65 349.498 346.741 C 342.846 347.02 337.251 349.244 333.1 354.481 C 328.939 359.728 326.991 365.782 328.419 372.573 C 328.959 374.178 329.757 375.865 330.415 377.421 C 331.8 380.698 334.205 383.19 337.271 385.35 C 338.736 386.541 340.545 387.732 342.566 388.548 C 345.612 389.783 348.741 390.287 351.932 390.34 C 358.42 390.451 364.913 390.336 371.537 390.361 C 371.581 390.347 371.627 390.332 371.903 390.371 Z" style="fill: url(#gradient-0); stroke-linecap: round; stroke-linejoin: round;" bx:origin="0.784158 0.825444"/>
  <path opacity="1.000000" d="M 400.444 367.517 C 399.442 367.39 398.441 367.266 397.324 367.145 C 392.444 365.47 389.63 362.195 388.957 356.916 C 396.87 356.916 404.723 356.916 412.722 357.001 C 412.917 357.161 412.978 357.223 413.054 357.271 C 411.893 361.544 409.719 364.991 405.294 366.706 C 404.065 366.992 402.909 367.228 401.531 367.462 C 401.02 367.48 400.733 367.499 400.444 367.517 M 402.46 358.593 C 400.402 357.583 398.712 358.025 397.76 359.898 C 397.566 360.283 397.486 360.878 397.639 361.265 C 398.104 362.445 400.174 363.39 401.758 363.265 C 402.971 363.171 403.916 362.211 404.461 360.502 C 405.063 358.806 403.353 357.459 402.46 358.593 Z" style="fill: rgb(247, 247, 248);" stroke="none" bx:origin="1.340552 2.504298"/>
  <path opacity="1.000000" d="M 362.565 367.074 C 359.795 365.837 357.492 364.114 355.993 361.499 C 355.485 360.616 355.169 359.625 354.712 358.513 C 354.617 358.23 354.571 358.118 354.525 358.003 C 354.554 357.758 354.582 357.514 354.611 357.177 C 361.327 357.074 368.041 357.065 374.874 357.016 C 376.24 356.979 377.483 356.979 378.731 356.979 C 378.57 362.031 373.424 367.905 366.156 367.754 C 365.029 367.592 364.109 367.449 363.187 367.309 C 363.007 367.228 362.825 367.149 362.565 367.074 M 370.208 359.937 C 369.812 358.178 369.066 357.798 366.693 358.229 C 366.138 358.347 365.567 358.416 365.031 358.595 C 363.895 358.972 363.411 359.975 363.449 360.994 C 363.473 361.663 363.995 362.501 364.552 362.925 C 365.761 363.852 367.191 363.881 368.59 363.241 C 369.928 362.63 370.216 361.467 370.208 359.937 Z" style="fill: rgb(247, 247, 248);" stroke="none" bx:origin="2.757267 2.457342"/>
  <path opacity="1.000000" stroke="none" d="M 404.34 360.643 C 403.916 362.211 402.971 363.171 401.758 363.265 C 400.174 363.39 398.104 362.445 397.639 361.265 C 397.486 360.878 397.561 360.28 397.76 359.898 C 398.719 358.079 400.59 357.623 402.67 358.281 C 402.444 359.351 403.097 360.312 404.34 360.643 Z" style="fill: rgb(59, 126, 188);" bx:origin="3.494471 4.821619"/>
  <path opacity="1.000000" stroke="none" d="M 370.168 360.141 C 370.216 361.467 369.928 362.63 368.59 363.241 C 367.191 363.881 365.761 363.852 364.552 362.925 C 363.995 362.501 363.473 361.663 363.449 360.994 C 363.411 359.975 363.895 358.972 365.031 358.595 C 365.567 358.416 367.631 358.177 368.364 358.134 C 369.124 358.457 367.626 358.6 368.303 359.655 C 368.548 359.796 369.989 360.298 370.168 360.141 Z" style="fill: rgb(59, 126, 188);" bx:origin="8.597379 4.56791"/>
  <path style="stroke-width: 3px; fill: rgb(59, 126, 189); stroke: rgb(36, 104, 166);" d="M 389.003 356.744 L 413.033 356.863" bx:origin="1.342403 221.916106"/>
  <path style="stroke-width: 3px; fill: rgb(59, 126, 189); stroke: rgb(36, 104, 166);" d="M 354.55 357.173 L 378.933 356.874" bx:d="M 354.55 357.173 R 378.933 356.874 1@82cedb73" bx:origin="2.736066 88.608457"/>
  <g clip-path="url(#clip0)" transform="matrix(0.6256, 0, 0, 0.6256, -1434.15918, -199.774551)" style="">
    <text style="fill: url(#gradient-2); font-family: &quot;Product Sans&quot;, &quot;Product Sans_MSFontService&quot;, sans-serif; font-size: 212.744px; font-weight: 700; letter-spacing: 0.1px; line-height: 274.119px; white-space: pre;"><tspan x="2088.13" y="951.652">Cloudfl</tspan><tspan style="fill: none;">__</tspan><tspan>w</tspan></text>
  </g>
</svg>