<?xml version="1.0" encoding="utf-8"?>
<svg viewBox="0 68.946 929.901 133.864" xmlns="http://www.w3.org/2000/svg" xmlns:bx="https://boxy-svg.com">
  <defs>
    <linearGradient gradientUnits="userSpaceOnUse" x1="250.189" y1="47.874" x2="250.189" y2="346.547" id="gradient-0" gradientTransform="matrix(0.338977, 0, 0, 0.338977, 19.894844, 71.532011)">
      <stop offset="0" style="stop-color: rgba(85, 154, 218, 1)"/>
      <stop offset="1" style="stop-color: rgba(36, 103, 165, 1)"/>
    </linearGradient>
    <linearGradient gradientUnits="userSpaceOnUse" x1="273.879" y1="263.605" x2="273.879" y2="466.641" id="gradient-1">
      <stop offset="0" style="stop-color: rgba(83, 152, 216, 1)"/>
      <stop offset="1" style="stop-color: rgba(36, 100, 160, 1)"/>
    </linearGradient>
    <style bx:fonts="Alata">@import url(https://fonts.googleapis.com/css2?family=Alata%3Aital%2Cwght%400%2C400&amp;display=swap);</style>
  </defs>
  <path opacity="1.000000" stroke="none" d="M 141.792 188.915 C 137.682 188.929 133.719 188.907 129.447 188.886 C 124.947 188.92 120.755 188.955 116.416 188.939 C 115.35 188.924 114.427 188.96 113.355 188.943 C 108.787 188.935 104.368 188.978 99.797 188.973 C 95.565 188.968 91.486 189.01 87.256 189.003 C 79.296 188.953 71.487 188.952 63.538 188.913 C 62.814 188.876 62.231 188.878 61.646 188.878 C 57.391 188.222 53.113 187.667 49.195 186.102 C 39.875 182.379 32.655 176.518 28.351 167.322 C 28.281 167.172 28.161 167.043 27.993 166.821 C 24.752 159.304 23.826 151.644 25.594 143.567 C 26.885 140.097 27.818 136.559 29.572 133.492 C 33.291 126.997 38.613 122.087 45.638 119.179 C 49.952 117.394 54.444 116.475 59.093 116.342 C 60.014 116.316 60.432 116.061 60.814 115.175 C 63.298 109.411 66.809 104.471 71.633 100.291 C 77.025 95.62 82.981 92.141 89.702 89.995 C 92.626 89.061 95.748 88.749 98.901 88.082 C 99.691 87.965 100.375 87.851 101.318 87.804 C 102.541 87.741 107.392 87.78 108.309 88.061 C 112.733 88.378 113.051 88.684 117.561 89.657 C 121.145 91.126 124.873 92.161 128.081 94.061 C 131.578 96.136 134.652 98.918 137.929 101.367 C 138.346 101.679 138.879 101.837 139.485 102.031 C 144.271 102.066 148.683 102.808 153.272 103.809 C 154.04 103.976 154.857 104.295 155.689 104.577 C 159.519 105.873 162.955 107.091 166.931 110.324 C 167.178 110.524 167.173 110.549 167.301 110.606 C 169.186 112.079 171.088 113.752 172.917 115.683 C 173.719 116.556 174.26 117.344 174.914 118.062 C 175.203 118.476 175.447 118.911 175.829 119.376 C 177.873 123.056 180.065 126.55 181.883 130.242 C 182.615 131.731 182.871 133.456 183.411 135.18 C 183.588 135.982 183.695 136.679 183.881 137.616 C 184.082 138.446 184.207 139.035 184.331 139.626 C 184.513 141.446 184.634 143.264 184.625 145.361 C 184.624 145.894 184.672 146.15 184.697 146.406 C 184.449 150.073 183.936 153.603 183.108 157.106 C 181.821 161.392 180.162 165.355 177.725 168.989 C 174.268 174.149 169.998 178.456 164.814 181.875 C 159.169 185.598 152.942 187.683 146.021 188.644 C 145.177 188.772 144.597 188.845 144.016 188.918 C 143.324 188.905 142.629 188.891 141.792 188.915 M 88.04 180.027 C 88.733 180.003 89.427 179.981 90.432 180.026 C 99.029 180.002 107.626 179.977 116.535 180.019 C 125.229 180.026 133.925 180.096 142.619 180.018 C 149.155 179.961 155.145 177.928 160.54 174.303 C 168.502 168.952 173.405 161.502 175.22 152.075 C 177.535 140.058 174.276 129.707 165.687 120.745 C 164.689 119.841 163.749 118.859 162.683 118.045 C 154.952 112.145 146.171 110.183 136.605 111.087 C 135.898 111.153 134.963 110.798 134.424 110.315 C 132.601 108.683 130.912 106.905 129.049 105.003 C 124.036 100.964 118.352 98.316 112.037 97.174 C 102.087 95.376 92.66 96.787 83.883 102.042 C 76.199 106.643 70.785 113.077 67.683 121.473 C 67.531 121.882 66.847 123.369 66.612 123.543 C 64.673 124.981 62.576 124.997 59.838 125.112 C 51.465 125.464 44.423 128.262 39.197 134.854 C 33.961 141.459 31.51 149.077 33.306 157.624 C 33.987 159.645 34.99 161.768 35.819 163.727 C 37.563 167.851 40.589 170.989 44.449 173.709 C 46.292 175.208 48.571 176.705 51.113 177.734 C 54.948 179.286 58.885 179.922 62.903 179.989 C 71.069 180.127 79.24 179.984 87.579 180.016 C 87.635 179.997 87.692 179.977 88.04 180.027 Z" style="fill: url(#gradient-0); stroke-linecap: round; stroke-linejoin: round;" bx:origin="0.784158 0.825444"/>
  <path opacity="1.000000" d="M 123.962 151.262 C 122.701 151.102 121.441 150.944 120.037 150.793 C 113.893 148.685 110.352 144.562 109.505 137.919 C 119.464 137.919 129.35 137.919 139.419 138.026 C 139.661 138.229 139.739 138.305 139.835 138.364 C 138.373 143.744 135.638 148.082 130.069 150.241 C 128.521 150.601 127.066 150.897 125.332 151.192 C 124.689 151.215 124.326 151.238 123.962 151.262 M 126.501 140.029 C 123.91 138.76 121.783 139.315 120.586 141.671 C 120.341 142.158 120.239 142.906 120.432 143.393 C 121.018 144.879 123.622 146.067 125.616 145.911 C 127.143 145.792 128.333 144.584 129.019 142.432 C 129.777 140.298 127.623 138.603 126.501 140.029 Z" style="fill: rgb(247, 247, 248);" stroke="none" bx:origin="1.340552 2.504298"/>
  <path opacity="1.000000" d="M 76.285 150.706 C 72.798 149.147 69.901 146.978 68.013 143.687 C 67.375 142.576 66.977 141.326 66.402 139.928 C 66.28 139.573 66.224 139.431 66.167 139.286 C 66.203 138.979 66.237 138.671 66.274 138.247 C 74.728 138.117 83.177 138.106 91.779 138.044 C 93.497 137.996 95.062 137.996 96.632 137.996 C 96.43 144.356 89.953 151.75 80.807 151.56 C 79.386 151.355 78.228 151.176 77.071 150.999 C 76.841 150.898 76.611 150.798 76.285 150.706 M 85.905 141.718 C 85.405 139.509 84.468 139.027 81.482 139.571 C 80.781 139.72 80.064 139.807 79.389 140.031 C 77.96 140.506 77.351 141.769 77.398 143.053 C 77.43 143.895 78.085 144.949 78.785 145.484 C 80.31 146.649 82.108 146.686 83.87 145.88 C 85.553 145.11 85.915 143.646 85.905 141.718 Z" style="fill: rgb(247, 247, 248);" stroke="none" bx:origin="2.757267 2.457342"/>
  <path opacity="1.000000" stroke="none" d="M 128.868 142.61 C 128.333 144.584 127.143 145.792 125.616 145.911 C 123.622 146.067 121.018 144.879 120.432 143.393 C 120.239 142.906 120.334 142.154 120.586 141.671 C 121.792 139.381 124.146 138.808 126.766 139.637 C 126.481 140.982 127.301 142.193 128.868 142.61 Z" style="fill: rgb(59, 126, 188);" bx:origin="3.494471 4.821619"/>
  <path opacity="1.000000" stroke="none" d="M 85.854 141.977 C 85.915 143.646 85.553 145.11 83.87 145.88 C 82.108 146.686 80.31 146.649 78.785 145.484 C 78.085 144.949 77.43 143.895 77.398 143.053 C 77.351 141.769 77.96 140.506 79.389 140.031 C 80.064 139.807 82.663 139.506 83.585 139.45 C 84.542 139.857 82.657 140.036 83.509 141.366 C 83.815 141.542 85.631 142.174 85.854 141.977 Z" style="fill: rgb(59, 126, 188);" bx:origin="8.597379 4.56791"/>
  <path style="stroke-width: 3px; fill: rgb(59, 126, 189); stroke: rgb(36, 104, 166);" d="M 109.563 137.7 L 139.809 137.851" bx:origin="1.342403 221.916106"/>
  <path style="stroke-width: 3px; fill: rgb(59, 126, 189); stroke: rgb(36, 104, 166);" d="M 66.198 138.242 L 96.887 137.865" bx:d="M 66.198 138.242 R 96.887 137.865 1@f22e523b" bx:origin="2.736066 88.608457"/>
  <text style="fill: url(#gradient-1); font-family: Alata; font-size: 147px; font-weight: 700; letter-spacing: -3.5px; paint-order: fill; stroke-width: 12.8611px; white-space: pre;" transform="matrix(0.640283, 0, 0, 0.610704, 225.668732, -83.589638)" x="-38.729" y="425.456" bx:origin="0.697005 -0.154188">Cloudflow</text>
</svg>