<?xml version="1.0" encoding="utf-8"?>
<svg viewBox="-112.481 49.345 808.506 156.362" xmlns="http://www.w3.org/2000/svg" xmlns:bx="https://boxy-svg.com">
  <defs>
    <linearGradient gradientUnits="userSpaceOnUse" x1="250.189" y1="47.874" x2="250.189" y2="346.547" id="gradient-0" gradientTransform="matrix(0.283067, 0, 0, 0.283067, 336.416516, 80.14044)">
      <stop offset="0" style="stop-color: rgba(85, 154, 218, 1)"/>
      <stop offset="1" style="stop-color: rgba(36, 103, 165, 1)"/>
    </linearGradient>
    <clipPath id="clip0">
      <rect x="394" y="297" width="3611" height="1334"/>
    </clipPath>
    <linearGradient gradientUnits="userSpaceOnUse" x1="2423.323" y1="814.677" x2="2423.323" y2="987.959" id="gradient-2">
      <stop offset="0" style="stop-color: rgba(85, 153, 217, 1)"/>
      <stop offset="1" style="stop-color: rgba(36, 102, 163, 1)"/>
    </linearGradient>
    <linearGradient gradientUnits="userSpaceOnUse" x1="2423.323" y1="814.677" x2="2423.323" y2="987.959" id="gradient-1" gradientTransform="matrix(1, 0, 0, 1, 665.166199, 0.1235)">
      <stop offset="0" style="stop-color: rgba(85, 153, 217, 1)"/>
      <stop offset="1" style="stop-color: rgba(36, 102, 163, 1)"/>
    </linearGradient>
  </defs>
  <path opacity="1.000000" stroke="none" d="M 438.209 178.162 C 434.775 178.175 431.467 178.155 427.9 178.139 C 424.142 178.166 420.642 178.197 417.018 178.183 C 416.127 178.171 415.356 178.199 414.461 178.187 C 410.646 178.178 406.957 178.215 403.139 178.211 C 399.604 178.207 396.199 178.241 392.666 178.236 C 386.02 178.195 379.498 178.193 372.862 178.16 C 372.258 178.13 371.77 178.131 371.281 178.131 C 367.728 177.583 364.155 177.121 360.884 175.814 C 353.102 172.704 347.071 167.811 343.479 160.131 C 343.42 160.005 343.319 159.897 343.18 159.714 C 340.473 153.435 339.698 147.039 341.176 140.294 C 342.255 137.396 343.032 134.442 344.498 131.881 C 347.603 126.456 352.048 122.358 357.913 119.928 C 361.515 118.439 365.268 117.67 369.151 117.559 C 369.917 117.538 370.268 117.324 370.587 116.586 C 372.66 111.772 375.593 107.646 379.62 104.156 C 384.123 100.255 389.098 97.35 394.711 95.559 C 397.15 94.777 399.759 94.519 402.391 93.962 C 403.05 93.863 403.623 93.769 404.41 93.73 C 405.432 93.675 409.483 93.708 410.249 93.943 C 413.943 94.209 414.206 94.464 417.973 95.276 C 420.967 96.505 424.08 97.367 426.76 98.955 C 429.678 100.686 432.246 103.009 434.982 105.054 C 435.329 105.316 435.776 105.447 436.282 105.609 C 440.277 105.638 443.963 106.257 447.795 107.093 C 448.436 107.233 449.118 107.5 449.812 107.736 C 453.012 108.817 455.881 109.834 459.201 112.533 C 459.407 112.702 459.403 112.722 459.509 112.769 C 461.084 114 462.671 115.398 464.2 117.009 C 464.87 117.739 465.322 118.396 465.866 118.996 C 466.108 119.341 466.313 119.705 466.631 120.093 C 468.336 123.165 470.166 126.084 471.687 129.168 C 472.298 130.41 472.511 131.851 472.962 133.289 C 473.11 133.961 473.2 134.542 473.356 135.324 C 473.524 136.019 473.626 136.509 473.73 137.003 C 473.884 138.523 473.984 140.042 473.976 141.792 C 473.976 142.237 474.016 142.451 474.036 142.667 C 473.828 145.726 473.401 148.675 472.71 151.599 C 471.636 155.18 470.249 158.49 468.213 161.525 C 465.328 165.833 461.761 169.428 457.432 172.284 C 452.718 175.393 447.52 177.132 441.739 177.938 C 441.035 178.043 440.551 178.104 440.065 178.165 C 439.487 178.154 438.906 178.144 438.209 178.162 M 393.321 170.741 C 393.9 170.721 394.479 170.702 395.318 170.739 C 402.5 170.719 409.677 170.7 417.116 170.732 C 424.377 170.739 431.64 170.799 438.899 170.732 C 444.356 170.685 449.358 168.988 453.866 165.961 C 460.512 161.492 464.607 155.271 466.122 147.399 C 468.058 137.363 465.333 128.72 458.162 121.236 C 457.328 120.482 456.544 119.661 455.653 118.982 C 449.198 114.055 441.864 112.417 433.878 113.171 C 433.285 113.227 432.504 112.929 432.056 112.527 C 430.532 111.165 429.122 109.679 427.565 108.089 C 423.381 104.718 418.634 102.506 413.362 101.552 C 405.051 100.052 397.18 101.23 389.85 105.618 C 383.434 109.461 378.913 114.833 376.322 121.845 C 376.196 122.186 375.625 123.428 375.429 123.574 C 373.809 124.774 372.058 124.787 369.772 124.882 C 362.78 125.176 356.899 127.513 352.536 133.018 C 348.163 138.533 346.115 144.896 347.616 152.034 C 348.184 153.721 349.023 155.494 349.714 157.129 C 351.17 160.574 353.698 163.193 356.92 165.463 C 358.46 166.715 360.362 167.967 362.486 168.825 C 365.687 170.123 368.976 170.653 372.33 170.708 C 379.149 170.825 385.974 170.704 392.936 170.73 C 392.983 170.716 393.031 170.7 393.321 170.741 Z" style="fill: url(#gradient-0); stroke-linecap: round; stroke-linejoin: round;" bx:origin="0.784158 0.825444"/>
  <path opacity="1.000000" d="M 423.32 146.72 C 422.267 146.586 421.214 146.456 420.04 146.329 C 414.911 144.568 411.953 141.126 411.246 135.577 C 419.563 135.577 427.817 135.577 436.225 135.667 C 436.43 135.835 436.494 135.9 436.574 135.95 C 435.354 140.442 433.068 144.065 428.417 145.867 C 427.126 146.168 425.911 146.416 424.462 146.662 C 423.925 146.681 423.624 146.701 423.32 146.72 M 425.439 137.34 C 423.276 136.278 421.499 136.743 420.499 138.711 C 420.295 139.116 420.211 139.742 420.372 140.148 C 420.86 141.389 423.036 142.382 424.701 142.25 C 425.976 142.152 426.969 141.143 427.542 139.346 C 428.175 137.564 426.377 136.148 425.439 137.34 Z" style="fill: rgb(247, 247, 248);" stroke="none" bx:origin="1.340552 2.504298"/>
  <path opacity="1.000000" d="M 383.506 146.254 C 380.595 144.954 378.174 143.143 376.598 140.394 C 376.065 139.466 375.732 138.425 375.252 137.256 C 375.152 136.958 375.104 136.841 375.056 136.72 C 375.086 136.462 375.115 136.206 375.146 135.851 C 382.205 135.743 389.262 135.734 396.444 135.682 C 397.88 135.643 399.186 135.643 400.498 135.643 C 400.329 140.953 394.92 147.127 387.281 146.969 C 386.096 146.798 385.129 146.648 384.16 146.501 C 383.971 146.416 383.779 146.333 383.506 146.254 M 391.54 138.752 C 391.123 136.904 390.339 136.504 387.845 136.957 C 387.262 137.081 386.661 137.154 386.098 137.342 C 384.904 137.738 384.395 138.792 384.435 139.863 C 384.461 140.567 385.009 141.447 385.595 141.893 C 386.865 142.867 388.368 142.898 389.839 142.225 C 391.245 141.583 391.548 140.361 391.54 138.752 Z" style="fill: rgb(247, 247, 248);" stroke="none" bx:origin="2.757267 2.457342"/>
  <path opacity="1.000000" stroke="none" d="M 427.415 139.495 C 426.969 141.143 425.976 142.152 424.701 142.25 C 423.036 142.382 420.86 141.389 420.372 140.148 C 420.211 139.742 420.29 139.113 420.499 138.711 C 421.507 136.8 423.473 136.32 425.659 137.012 C 425.422 138.137 426.108 139.147 427.415 139.495 Z" style="fill: rgb(59, 126, 188);" bx:origin="3.494471 4.821619"/>
  <path opacity="1.000000" stroke="none" d="M 391.497 138.967 C 391.548 140.361 391.245 141.583 389.839 142.225 C 388.368 142.898 386.865 142.867 385.595 141.893 C 385.009 141.447 384.461 140.567 384.435 139.863 C 384.395 138.792 384.904 137.738 386.098 137.342 C 386.661 137.154 388.831 136.903 389.601 136.857 C 390.4 137.197 388.826 137.347 389.537 138.456 C 389.795 138.604 391.309 139.132 391.497 138.967 Z" style="fill: rgb(59, 126, 188);" bx:origin="8.597379 4.56791"/>
  <path style="stroke-width: 3px; fill: rgb(59, 126, 189); stroke: rgb(36, 104, 166);" d="M 411.294 135.396 L 436.552 135.521" bx:origin="1.342403 221.916106"/>
  <path style="stroke-width: 3px; fill: rgb(59, 126, 189); stroke: rgb(36, 104, 166);" d="M 375.082 135.847 L 400.71 135.533" bx:d="M 375.082 135.847 R 400.71 135.533 1@278cfa79" bx:origin="2.736066 88.608457"/>
  <g clip-path="url(#clip0)" transform="matrix(0.6256, 0, 0, 0.6256, -1415.310791, -420.040497)" style="">
    <path d="M 2236.625 927.186 Q 2225.35 940.802 2210.032 947.929 Q 2194.715 955.056 2175.78 955.056 Q 2158.761 955.056 2144.188 948.886 Q 2129.615 942.717 2118.978 932.08 Q 2108.341 921.442 2102.171 906.869 Q 2096.001 892.296 2096.001 875.49 Q 2096.001 858.683 2102.171 844.11 Q 2108.341 829.537 2118.978 818.9 Q 2129.615 808.263 2144.188 802.093 Q 2158.761 795.923 2175.78 795.923 Q 2194.076 795.923 2208.011 802.306 Q 2221.946 808.688 2232.796 820.814 L 2212.585 840.387 Q 2205.777 832.515 2196.948 827.835 Q 2188.12 823.155 2175.993 823.155 Q 2165.356 823.155 2155.995 826.878 Q 2146.634 830.601 2139.72 837.408 Q 2132.806 844.216 2128.764 853.896 Q 2124.722 863.576 2124.722 875.49 Q 2124.722 887.403 2128.764 897.083 Q 2132.806 906.763 2139.72 913.571 Q 2146.634 920.379 2155.995 924.102 Q 2165.356 927.825 2175.993 927.825 Q 2188.758 927.825 2198.65 922.612 Q 2208.543 917.4 2216.202 907.827 Z M 2254.76 951.652 L 2254.76 799.327 L 2282.63 799.327 L 2282.63 951.652 Z M 2355.456 844.004 Q 2367.582 844.004 2377.688 848.152 Q 2387.793 852.301 2395.133 859.64 Q 2402.472 866.98 2406.621 877.192 Q 2410.769 887.403 2410.769 899.53 Q 2410.769 911.656 2406.621 921.868 Q 2402.472 932.08 2395.133 939.419 Q 2387.793 946.759 2377.688 950.907 Q 2367.582 955.056 2355.456 955.056 Q 2343.329 955.056 2333.224 950.907 Q 2323.119 946.759 2315.779 939.419 Q 2308.439 932.08 2304.291 921.868 Q 2300.142 911.656 2300.142 899.53 Q 2300.142 887.403 2304.291 877.192 Q 2308.439 866.98 2315.779 859.64 Q 2323.119 852.301 2333.224 848.152 Q 2343.329 844.004 2355.456 844.004 Z M 2355.456 929.314 Q 2360.774 929.314 2365.774 927.293 Q 2370.773 925.272 2374.603 921.442 Q 2378.432 917.613 2380.666 912.082 Q 2382.9 906.55 2382.9 899.53 Q 2382.9 892.509 2380.666 886.978 Q 2378.432 881.446 2374.603 877.617 Q 2370.773 873.788 2365.774 871.767 Q 2360.774 869.746 2355.456 869.746 Q 2349.924 869.746 2345.031 871.767 Q 2340.138 873.788 2336.309 877.617 Q 2332.479 881.446 2330.246 886.978 Q 2328.012 892.509 2328.012 899.53 Q 2328.012 906.55 2330.246 912.082 Q 2332.479 917.613 2336.309 921.442 Q 2340.138 925.272 2345.031 927.293 Q 2349.924 929.314 2355.456 929.314 Z M 2500.392 938.036 L 2498.69 938.036 Q 2493.797 945.908 2485.5 950.482 Q 2477.203 955.056 2466.565 955.056 Q 2446.78 955.056 2437.1 942.929 Q 2427.421 930.803 2427.421 910.592 L 2427.421 847.407 L 2455.29 847.407 L 2455.29 907.188 Q 2455.29 918.464 2460.29 923.889 Q 2465.289 929.314 2474.863 929.314 Q 2480.607 929.314 2484.968 926.867 Q 2489.329 924.421 2492.414 920.272 Q 2495.499 916.124 2497.094 910.486 Q 2498.69 904.848 2498.69 898.466 L 2498.69 847.407 L 2526.559 847.407 L 2526.559 951.652 L 2500.392 951.652 Z M 2627.671 939.1 L 2625.969 939.1 Q 2622.14 945.695 2614.055 950.376 Q 2605.971 955.056 2594.057 955.056 Q 2584.058 955.056 2575.017 950.907 Q 2565.975 946.759 2559.061 939.419 Q 2552.147 932.08 2548.105 921.868 Q 2544.063 911.656 2544.063 899.53 Q 2544.063 887.403 2548.105 877.192 Q 2552.147 866.98 2559.061 859.64 Q 2565.975 852.301 2575.017 848.152 Q 2584.058 844.004 2594.057 844.004 Q 2605.971 844.004 2614.055 848.684 Q 2622.14 853.364 2625.969 859.959 L 2627.671 859.959 L 2625.969 845.067 L 2625.969 799.327 L 2653.838 799.327 L 2653.838 951.652 L 2627.671 951.652 Z M 2599.801 929.314 Q 2605.333 929.314 2610.332 927.293 Q 2615.332 925.272 2619.161 921.442 Q 2622.991 917.613 2625.331 912.082 Q 2627.671 906.55 2627.671 899.53 Q 2627.671 892.509 2625.331 886.978 Q 2622.991 881.446 2619.161 877.617 Q 2615.332 873.788 2610.332 871.767 Q 2605.333 869.746 2599.801 869.746 Q 2594.27 869.746 2589.271 871.873 Q 2584.271 874 2580.442 877.83 Q 2576.612 881.659 2574.272 887.191 Q 2571.932 892.722 2571.932 899.53 Q 2571.932 906.338 2574.272 911.869 Q 2576.612 917.4 2580.442 921.23 Q 2584.271 925.059 2589.271 927.186 Q 2594.27 929.314 2599.801 929.314 Z M 2730.919 797.625 Q 2736.876 797.625 2741.981 798.689 Q 2747.087 799.753 2751.129 801.455 L 2743.258 826.346 Q 2741.13 825.282 2738.684 824.644 Q 2736.237 824.006 2732.621 824.006 Q 2726.451 824.006 2722.834 827.941 Q 2719.218 831.877 2719.218 838.898 L 2719.218 847.407 L 2745.173 847.407 L 2745.173 871.235 L 2719.218 871.235 L 2719.218 951.652 L 2691.348 951.652 L 2691.348 871.235 L 2672.627 871.235 L 2672.627 847.407 L 2691.348 847.407 L 2691.348 837.196 Q 2691.348 827.622 2694.22 820.283 Q 2697.092 812.943 2702.411 807.943 Q 2707.73 802.944 2714.963 800.285 Q 2722.196 797.625 2730.919 797.625 Z" style="fill: url(#gradient-2); line-height: 274.119px; white-space: pre;"/>
    <path style="fill: rgb(51, 51, 51); white-space: pre;"/>
    <path d="M 2765.211 951.776 L 2765.211 799.483 L 2793.075 799.483 L 2793.075 951.776 Z" style="fill: url(#gradient-1); line-height: 274.119px; white-space: pre;"/>
    <path d="M 2805.688 973.046 L 2911.826 973.046 L 2911.826 997.719 L 2805.688 997.719 Z M 2912.512 973.046 L 3018.65 973.046 L 3018.65 997.719 L 2912.512 997.719 Z" style="fill: none; line-height: 274.119px; white-space: pre;"/>
    <path d="M 3020.212 847.553 L 3051.479 847.553 L 3068.708 912.852 L 3070.197 912.852 L 3090.829 847.553 L 3119.543 847.553 L 3140.388 912.852 L 3141.877 912.852 L 3158.893 847.553 L 3189.734 847.553 L 3156.34 951.776 L 3126.35 951.776 L 3105.505 886.052 L 3104.016 886.052 L 3083.172 951.776 L 3053.606 951.776 Z" style="fill: url(#gradient-1); line-height: 274.119px; white-space: pre;"/>
  </g>
</svg>